{"accessors" : [{"bufferView" : 0, "byteOffset" : 0, "componentType" : 5123, "count" : 618, "type" : "SCALAR", "max" : [495], "min" : [0]}, {"bufferView" : 1, "byteOffset" : 0, "componentType" : 5126, "count" : 496, "type" : "VEC3", "max" : [0.05254468321800232, 1.7427960634231567, 0.11167673766613007], "min" : [0.01214451715350151, 1.7024577856063843, 0.0915987566113472], "name" : "POSITION"}, {"bufferView" : 1, "byteOffset" : 12, "componentType" : 5126, "count" : 496, "type" : "VEC2", "max" : [0.9646214246749878, 1.9818061590194702], "min" : [0.019903719425201416, 1.0209906101226807], "name" : "TEXCOORD_0"}, {"bufferView" : 1, "byteOffset" : 20, "componentType" : 5126, "count" : 496, "type" : "VEC3", "max" : [0.9406006932258606, 0.9512309432029724, 1.0000042915344238], "min" : [-0.9471116065979004, -0.9485120177268982, -1.0000042915344238], "name" : "NORMAL"}, {"bufferView" : 0, "byteOffset" : 1236, "componentType" : 5123, "count" : 618, "type" : "SCALAR", "max" : [500], "min" : [0]}, {"bufferView" : 2, "byteOffset" : 0, "componentType" : 5126, "count" : 501, "type" : "VEC3", "max" : [-0.01242996845394373, 1.7428375482559204, 0.11167677491903305], "min" : [-0.052669525146484375, 1.7024163007736206, 0.09159878641366959], "name" : "POSITION"}, {"bufferView" : 2, "byteOffset" : 12, "componentType" : 5126, "count" : 501, "type" : "VEC2", "max" : [0.9585750699043274, 1.966354489326477], "min" : [0.006885886192321777, 1.022762417793274], "name" : "TEXCOORD_0"}, {"bufferView" : 2, "byteOffset" : 20, "componentType" : 5126, "count" : 501, "type" : "VEC3", "max" : [0.9310468435287476, 0.9478710293769836, 1.0000042915344238], "min" : [-0.9491647481918335, -0.9364743232727051, -1.0000042915344238], "name" : "NORMAL"}, {"bufferView" : 0, "byteOffset" : 2472, "componentType" : 5123, "count" : 12282, "type" : "SCALAR", "max" : [9739], "min" : [0]}, {"bufferView" : 3, "byteOffset" : 0, "componentType" : 5126, "count" : 9740, "type" : "VEC3", "max" : [0.09579431265592575, 1.8330844640731812, 0.14807459712028503], "min" : [-0.09610731154680252, 1.5206061601638794, -0.08657769858837128], "name" : "POSITION"}, {"bufferView" : 3, "byteOffset" : 12, "componentType" : 5126, "count" : 9740, "type" : "VEC2", "max" : [0.9943000078201294, 1.9807000160217285], "min" : [0.004999999888241291, 1.004349946975708], "name" : "TEXCOORD_0"}, {"bufferView" : 3, "byteOffset" : 20, "componentType" : 5126, "count" : 9740, "type" : "VEC3", "max" : [0.9992218613624573, 0.9998693466186523, 0.9999847412109375], "min" : [-0.9992175102233887, -0.9999938011169434, -0.9999959468841553], "name" : "NORMAL"}, {"bufferView" : 0, "byteOffset" : 27036, "componentType" : 5123, "count" : 300, "type" : "SCALAR", "max" : [241], "min" : [0]}, {"bufferView" : 4, "byteOffset" : 0, "componentType" : 5126, "count" : 242, "type" : "VEC3", "max" : [0.0285772904753685, 1.6740247011184692, 0.1269017457962036], "min" : [-0.02857729233801365, 1.6368765830993652, 0.05839937552809715], "name" : "POSITION"}, {"bufferView" : 4, "byteOffset" : 12, "componentType" : 5126, "count" : 242, "type" : "VEC2", "max" : [0.9808249473571777, 1.9832134246826172], "min" : [0.051069796085357666, 1.028295874595642], "name" : "TEXCOORD_0"}, {"bufferView" : 4, "byteOffset" : 20, "componentType" : 5126, "count" : 242, "type" : "VEC3", "max" : [0.9971882700920105, 0.8775893449783325, 0.9974808692932129], "min" : [-0.9971882700920105, -0.9858413934707642, -0.7650182843208313], "name" : "NORMAL"}, {"bufferView" : 0, "byteOffset" : 27636, "componentType" : 5123, "count" : 3000, "type" : "SCALAR", "max" : [2477], "min" : [0]}, {"bufferView" : 5, "byteOffset" : 0, "componentType" : 5126, "count" : 2478, "type" : "VEC3", "max" : [0.09281288087368011, 1.852311372756958, 0.13870497047901154], "min" : [-0.09001138806343079, 1.6700317859649658, -0.08351245522499084], "name" : "POSITION"}, {"bufferView" : 5, "byteOffset" : 12, "componentType" : 5126, "count" : 2478, "type" : "VEC3", "max" : [0.9946483373641968, 0.9986873269081116, 0.9993846416473389], "min" : [-0.9968674182891846, -0.996292233467102, -0.9909208416938782], "name" : "NORMAL"}, {"bufferView" : 5, "byteOffset" : 24, "componentType" : 5126, "count" : 2478, "type" : "VEC2", "max" : [0.9950224161148071, 1.9581010341644287], "min" : [0.010376930236816406, 1.0334174633026123], "name" : "TEXCOORD_0"}, {"bufferView" : 0, "byteOffset" : 33636, "componentType" : 5123, "count" : 4626, "type" : "SCALAR", "max" : [3708], "min" : [0]}, {"bufferView" : 6, "byteOffset" : 0, "componentType" : 5126, "count" : 3709, "type" : "VEC3", "max" : [0.5314637422561646, 1.0887291431427002, 0.1485920250415802], "min" : [-0.5314701199531555, 0.13165488839149475, -0.0952289029955864], "name" : "POSITION"}, {"bufferView" : 6, "byteOffset" : 12, "componentType" : 5126, "count" : 3709, "type" : "VEC3", "max" : [0.9990517497062683, 0.8005331754684448, 0.993378221988678], "min" : [-0.9990531802177429, -0.9900028109550476, -0.9918189644813538], "name" : "NORMAL"}, {"bufferView" : 6, "byteOffset" : 24, "componentType" : 5126, "count" : 3709, "type" : "VEC4", "max" : [0.9997002482414246, 0.9990326166152954, 0.9992390275001526, 1], "min" : [-0.9964984655380249, -0.9887896776199341, -0.9998923540115356, 1], "name" : "TANGENT"}, {"bufferView" : 6, "byteOffset" : 40, "componentType" : 5126, "count" : 3709, "type" : "VEC2", "max" : [0.9857610464096069, 1.9750934839248657], "min" : [0.023349180817604065, 1.082613229751587], "name" : "TEXCOORD_0"}, {"bufferView" : 0, "byteOffset" : 42888, "componentType" : 5123, "count" : 6708, "type" : "SCALAR", "max" : [5426], "min" : [0]}, {"bufferView" : 7, "byteOffset" : 0, "componentType" : 5126, "count" : 5427, "type" : "VEC3", "max" : [0.20718427002429962, 1.0897917747497559, 0.14649316668510437], "min" : [-0.20718148350715637, 0.07966995239257812, -0.1255275011062622], "name" : "POSITION"}, {"bufferView" : 7, "byteOffset" : 12, "componentType" : 5126, "count" : 5427, "type" : "VEC3", "max" : [0.9999436736106873, 0.9991064667701721, 0.9998029470443726], "min" : [-0.999943196773529, -0.9971703290939331, -0.9994057416915894], "name" : "NORMAL"}, {"bufferView" : 7, "byteOffset" : 24, "componentType" : 5126, "count" : 5427, "type" : "VEC4", "max" : [1.0000044107437134, 0.9733595848083496, 0.9994643330574036, 1], "min" : [-1.0000042915344238, -0.9586168527603149, -0.999464213848114, -1], "name" : "TANGENT"}, {"bufferView" : 7, "byteOffset" : 40, "componentType" : 5126, "count" : 5427, "type" : "VEC2", "max" : [0.9871932864189148, 1.9781098365783691], "min" : [0.013636048883199692, 1.0095629692077637], "name" : "TEXCOORD_0"}, {"bufferView" : 0, "byteOffset" : 56304, "componentType" : 5123, "count" : 3444, "type" : "SCALAR", "max" : [2743], "min" : [0]}, {"bufferView" : 8, "byteOffset" : 0, "componentType" : 5126, "count" : 2744, "type" : "VEC3", "max" : [0.22698475420475006, 0.1331181824207306, 0.2264384627342224], "min" : [-0.2269826978445053, -0.0008289858233183622, -0.11738000065088272], "name" : "POSITION"}, {"bufferView" : 8, "byteOffset" : 12, "componentType" : 5126, "count" : 2744, "type" : "VEC3", "max" : [0.9992496371269226, 0.9875492453575134, 0.995728611946106], "min" : [-0.9992477893829346, -0.9994316101074219, -0.9835725426673889], "name" : "NORMAL"}, {"bufferView" : 8, "byteOffset" : 24, "componentType" : 5126, "count" : 2744, "type" : "VEC4", "max" : [0.9999136924743652, 0.9935176372528076, 0.9106655120849609, 1], "min" : [-0.9999139308929443, -0.9955931901931763, -0.8414480090141296, -1], "name" : "TANGENT"}, {"bufferView" : 8, "byteOffset" : 40, "componentType" : 5126, "count" : 2744, "type" : "VEC2", "max" : [0.9900428652763367, 1.9804185628890991], "min" : [0.014865286648273468, 1.0112762451171875], "name" : "TEXCOORD_0"}, {"bufferView" : 0, "byteOffset" : 63192, "componentType" : 5123, "count" : 8649, "type" : "SCALAR", "max" : [7052], "min" : [0]}, {"bufferView" : 9, "byteOffset" : 0, "componentType" : 5126, "count" : 7053, "type" : "VEC3", "max" : [0.48770374059677124, 1.6440479755401611, 0.15718385577201843], "min" : [-0.4877031743526459, 1.027587890625, -0.13302016258239746], "name" : "POSITION"}, {"bufferView" : 9, "byteOffset" : 12, "componentType" : 5126, "count" : 7053, "type" : "VEC3", "max" : [0.9998250007629395, 0.9935595393180847, 0.9995816349983215], "min" : [-0.9997972249984741, -0.9999786019325256, -0.9999383687973022], "name" : "NORMAL"}, {"bufferView" : 9, "byteOffset" : 24, "componentType" : 5126, "count" : 7053, "type" : "VEC4", "max" : [1.0000004768371582, 0.9940611124038696, 0.9982957243919373, 1], "min" : [-0.9999980926513672, -0.9893984198570251, -0.9975283145904541, 1], "name" : "TANGENT"}, {"bufferView" : 9, "byteOffset" : 40, "componentType" : 5126, "count" : 7053, "type" : "VEC2", "max" : [0.9929662346839905, 1.9898111820220947], "min" : [0.006146354600787163, 1.0124449729919434], "name" : "TEXCOORD_0"}], "asset" : {"generator" : "Aspose.3D 24.1.0", "version" : "2.0"}, "buffers" : [{"uri" : "data:application/octet-stream;base64,", "byteLength" : 1743204}], "bufferViews" : [{"buffer" : 0, "byteOffset" : 0, "byteLength" : 80492, "target" : 34963}, {"buffer" : 0, "byteOffset" : 80496, "byteLength" : 19776, "byteStride" : 32, "target" : 34962}, {"buffer" : 0, "byteOffset" : 100276, "byteLength" : 19776, "byteStride" : 32, "target" : 34962}, {"buffer" : 0, "byteOffset" : 120056, "byteLength" : 393024, "byteStride" : 32, "target" : 34962}, {"buffer" : 0, "byteOffset" : 513084, "byteLength" : 9600, "byteStride" : 32, "target" : 34962}, {"buffer" : 0, "byteOffset" : 522688, "byteLength" : 96000, "byteStride" : 32, "target" : 34962}, {"buffer" : 0, "byteOffset" : 618692, "byteLength" : 222048, "byteStride" : 48, "target" : 34962}, {"buffer" : 0, "byteOffset" : 840744, "byteLength" : 321984, "byteStride" : 48, "target" : 34962}, {"buffer" : 0, "byteOffset" : 1162732, "byteLength" : 165312, "byteStride" : 48, "target" : 34962}, {"buffer" : 0, "byteOffset" : 1328048, "byteLength" : 415152, "byteStride" : 48, "target" : 34962}], "images" : [{"uri" : "data:image/jpeg;base64,"}, {"uri" : "data:image/jpeg;base64,"}, {"uri" : "data:image/jpeg;base64,"}, {"uri" : "data:image/jpeg;base64,"}, {"uri" : "data:image/jpeg;base64,"}, {"uri" : "data:image/jpeg;base64,"}, {"uri" : "data:image/jpeg;base64,"}, {"uri" : "data:image/jpeg;base64,"}, {"uri" : "data:image/jpeg;base64,"}, {"uri" : "data:image/jpeg;base64,"}, {"uri" : "data:image/jpeg;base64,"}, {"uri" : "data:image/jpeg;base64,"}, {"uri" : "data:image/jpeg;base64,"}, {"uri" : "data:image/jpeg;base64,"}, {"uri" : "data:image/jpeg;base64,"}, {"uri" : "data:image/jpeg;base64,"}], "materials" : [{"name" : "Wolf3D_Eye", "pbrMetallicRoughness" : {"baseColorFactor" : [1, 1, 1, 1], "baseColorTexture" : {"index" : 0, "texCoord" : 0}, "metallicFactor" : 0, "roughnessFactor" : 1}, "emissiveFactor" : [0, 0, 0], "alphaMode" : "OPAQUE", "doubleSided" : false}, {"name" : "Wolf3D_Eye", "pbrMetallicRoughness" : {"baseColorFactor" : [1, 1, 1, 1], "baseColorTexture" : {"index" : 0, "texCoord" : 0}, "metallicFactor" : 0, "roughnessFactor" : 1}, "emissiveFactor" : [0, 0, 0], "alphaMode" : "OPAQUE", "doubleSided" : false}, {"name" : "Wolf3D_Skin", "pbrMetallicRoughness" : {"baseColorFactor" : [1, 1, 1, 1], "baseColorTexture" : {"index" : 1, "texCoord" : 0}, "metallicFactor" : 0, "roughnessFactor" : 0.699999988079071}, "emissiveFactor" : [0, 0, 0], "alphaMode" : "OPAQUE", "doubleSided" : false}, {"name" : "Wolf3D_Teeth", "pbrMetallicRoughness" : {"baseColorFactor" : [1, 1, 1, 1], "baseColorTexture" : {"index" : 2, "texCoord" : 0}, "metallicFactor" : 0, "roughnessFactor" : 1}, "emissiveFactor" : [0, 0, 0], "alphaMode" : "OPAQUE", "doubleSided" : true}, {"name" : "Wolf3D_Hair", "pbrMetallicRoughness" : {"baseColorFactor" : [1, 1, 1, 1], "baseColorTexture" : {"index" : 4, "texCoord" : 0}, "metallicFactor" : 0.03636400029063225, "roughnessFactor" : 0.6055644154548645}, "normalTexture" : {"index" : 3, "texCoord" : 0, "scale" : 1}, "emissiveFactor" : [0, 0, 0], "alphaMode" : "OPAQUE", "doubleSided" : true}, {"name" : "Wolf3D_Body", "pbrMetallicRoughness" : {"baseColorFactor" : [1, 1, 1, 1], "baseColorTexture" : {"index" : 6, "texCoord" : 0}, "metallicFactor" : 0, "roughnessFactor" : 0.5527864098548889}, "normalTexture" : {"index" : 5, "texCoord" : 0, "scale" : 1}, "emissiveFactor" : [0, 0, 0], "alphaMode" : "OPAQUE", "doubleSided" : false}, {"name" : "Wolf3D_Outfit_Bottom", "pbrMetallicRoughness" : {"baseColorFactor" : [1, 1, 1, 1], "baseColorTexture" : {"index" : 8, "texCoord" : 0}, "metallicFactor" : 1, "roughnessFactor" : 1, "metallicRoughnessTexture" : {"index" : 9, "texCoord" : 0}}, "normalTexture" : {"index" : 7, "texCoord" : 0, "scale" : 1}, "emissiveFactor" : [0, 0, 0], "alphaMode" : "OPAQUE", "doubleSided" : false}, {"name" : "Wolf3D_Outfit_Footwear", "pbrMetallicRoughness" : {"baseColorFactor" : [1, 1, 1, 1], "baseColorTexture" : {"index" : 11, "texCoord" : 0}, "metallicFactor" : 1, "roughnessFactor" : 1, "metallicRoughnessTexture" : {"index" : 12, "texCoord" : 0}}, "normalTexture" : {"index" : 10, "texCoord" : 0, "scale" : 1}, "emissiveFactor" : [0, 0, 0], "alphaMode" : "OPAQUE", "doubleSided" : false}, {"name" : "Wolf3D_Outfit_Top", "pbrMetallicRoughness" : {"baseColorFactor" : [1, 1, 1, 1], "baseColorTexture" : {"index" : 14, "texCoord" : 0}, "metallicFactor" : 1, "roughnessFactor" : 1, "metallicRoughnessTexture" : {"index" : 15, "texCoord" : 0}}, "normalTexture" : {"index" : 13, "texCoord" : 0, "scale" : 1}, "emissiveFactor" : [0, 0, 0], "alphaMode" : "OPAQUE", "doubleSided" : false}], "meshes" : [{"primitives" : [{"attributes" : {"POSITION" : 1, "TEXCOORD_0" : 2, "NORMAL" : 3}, "indices" : 0, "material" : 0, "mode" : 4}]}, {"primitives" : [{"attributes" : {"POSITION" : 5, "TEXCOORD_0" : 6, "NORMAL" : 7}, "indices" : 4, "material" : 1, "mode" : 4}]}, {"primitives" : [{"attributes" : {"POSITION" : 9, "TEXCOORD_0" : 10, "NORMAL" : 11}, "indices" : 8, "material" : 2, "mode" : 4}]}, {"primitives" : [{"attributes" : {"POSITION" : 13, "TEXCOORD_0" : 14, "NORMAL" : 15}, "indices" : 12, "material" : 3, "mode" : 4}]}, {"primitives" : [{"attributes" : {"POSITION" : 17, "NORMAL" : 18, "TEXCOORD_0" : 19}, "indices" : 16, "material" : 4, "mode" : 4}]}, {"primitives" : [{"attributes" : {"POSITION" : 21, "NORMAL" : 22, "TANGENT" : 23, "TEXCOORD_0" : 24}, "indices" : 20, "material" : 5, "mode" : 4}]}, {"primitives" : [{"attributes" : {"POSITION" : 26, "NORMAL" : 27, "TANGENT" : 28, "TEXCOORD_0" : 29}, "indices" : 25, "material" : 6, "mode" : 4}]}, {"primitives" : [{"attributes" : {"POSITION" : 31, "NORMAL" : 32, "TANGENT" : 33, "TEXCOORD_0" : 34}, "indices" : 30, "material" : 7, "mode" : 4}]}, {"primitives" : [{"attributes" : {"POSITION" : 36, "NORMAL" : 37, "TANGENT" : 38, "TEXCOORD_0" : 39}, "indices" : 35, "material" : 8, "mode" : 4}]}], "nodes" : [{"mesh" : 0, "name" : "EyeLeft"}, {"mesh" : 1, "name" : "EyeRight"}, {"mesh" : 2, "name" : "Wolf3D_Head"}, {"mesh" : 3, "name" : "Wolf3D_Teeth"}, {"mesh" : 4, "name" : "Wolf3D_Hair"}, {"mesh" : 5, "name" : "Wolf3D_Body"}, {"mesh" : 6, "name" : "Wolf3D_Outfit_Bottom"}, {"mesh" : 7, "name" : "Wolf3D_Outfit_Footwear"}, {"mesh" : 8, "name" : "Wolf3D_Outfit_Top"}, {"children" : [0, 1, 2, 3, 4, 5, 6, 7, 8], "name" : "Armature"}], "samplers" : [{"magFilter" : 9728, "minFilter" : 9728, "wrapS" : 10497, "wrapT" : 10497}, {"magFilter" : 9728, "minFilter" : 9728, "wrapS" : 10497, "wrapT" : 10497}, {"magFilter" : 9729, "minFilter" : 9987, "wrapS" : 10497, "wrapT" : 10497}, {"magFilter" : 9729, "minFilter" : 9987, "wrapS" : 10497, "wrapT" : 10497}, {"magFilter" : 9728, "minFilter" : 9728, "wrapS" : 10497, "wrapT" : 10497}, {"magFilter" : 9729, "minFilter" : 9987, "wrapS" : 33071, "wrapT" : 33071}, {"magFilter" : 9728, "minFilter" : 9728, "wrapS" : 10497, "wrapT" : 10497}, {"magFilter" : 9729, "minFilter" : 9987, "wrapS" : 33071, "wrapT" : 33071}, {"magFilter" : 9729, "minFilter" : 9987, "wrapS" : 33071, "wrapT" : 33071}, {"magFilter" : 9729, "minFilter" : 9987, "wrapS" : 33071, "wrapT" : 33071}, {"magFilter" : 9729, "minFilter" : 9987, "wrapS" : 33071, "wrapT" : 33071}, {"magFilter" : 9729, "minFilter" : 9987, "wrapS" : 33071, "wrapT" : 33071}, {"magFilter" : 9729, "minFilter" : 9987, "wrapS" : 33071, "wrapT" : 33071}, {"magFilter" : 9729, "minFilter" : 9987, "wrapS" : 33071, "wrapT" : 33071}, {"magFilter" : 9729, "minFilter" : 9987, "wrapS" : 33071, "wrapT" : 33071}, {"magFilter" : 9729, "minFilter" : 9987, "wrapS" : 33071, "wrapT" : 33071}], "scene" : 0, "scenes" : [{"nodes" : [9]}], "textures" : [{"sampler" : 0, "source" : 0, "name" : ""}, {"sampler" : 1, "source" : 1, "name" : ""}, {"sampler" : 2, "source" : 2, "name" : ""}, {"sampler" : 3, "source" : 3, "name" : ""}, {"sampler" : 4, "source" : 4, "name" : ""}, {"sampler" : 5, "source" : 5, "name" : ""}, {"sampler" : 6, "source" : 6, "name" : ""}, {"sampler" : 7, "source" : 7, "name" : ""}, {"sampler" : 8, "source" : 8, "name" : ""}, {"sampler" : 9, "source" : 9, "name" : ""}, {"sampler" : 10, "source" : 10, "name" : ""}, {"sampler" : 11, "source" : 11, "name" : ""}, {"sampler" : 12, "source" : 12, "name" : ""}, {"sampler" : 13, "source" : 13, "name" : ""}, {"sampler" : 14, "source" : 14, "name" : ""}, {"sampler" : 15, "source" : 15, "name" : ""}]}