<?xml version="1.0" encoding="UTF-8"?>
<svg version="1.1" xmlns="http://www.w3.org/2000/svg" width="256" height="256">
<path d="M0 0 C1.95358681 -0.01270432 1.95358681 -0.01270432 3.94664001 -0.02566528 C7.48833052 -0.04770206 11.02978715 -0.05082086 14.57153678 -0.04891777 C17.545539 -0.04879719 20.51949324 -0.05739732 23.49348193 -0.06569529 C30.52140402 -0.084867 37.54920738 -0.08783678 44.57714844 -0.08105469 C51.78508978 -0.07442573 58.99251788 -0.09724609 66.20035523 -0.13436842 C72.42500899 -0.16524313 78.6494992 -0.17640616 84.87422782 -0.1725316 C88.57585737 -0.17048152 92.27708761 -0.17566851 95.97864342 -0.20042419 C121.51812178 -0.3577158 142.00706121 2.71771283 161.10595703 20.86010742 C174.37028659 33.99695466 182.76254462 51.51841151 182.94955444 70.24154663 C182.94662384 71.44856232 182.94369324 72.655578 182.94067383 73.89916992 C182.94914337 75.20156113 182.95761292 76.50395233 182.96633911 77.84580994 C182.98837588 81.38750044 182.99149469 84.92895707 182.9895916 88.4707067 C182.98947101 91.44470892 182.99807114 94.41866316 183.00636911 97.39265186 C183.02554083 104.42057394 183.02851061 111.4483773 183.02172852 118.47631836 C183.01509955 125.6842597 183.03791992 132.8916878 183.07504225 140.09952515 C183.10591696 146.32417891 183.11707999 152.54866913 183.11320543 158.77339774 C183.11115534 162.47502729 183.11634234 166.17625754 183.14109802 169.87781334 C183.29838963 195.4172917 180.222961 215.90623113 162.08056641 235.00512695 C148.95940573 248.25361772 131.42825024 256.68689488 112.71815491 256.82650757 C111.51420578 256.82043488 110.31025665 256.81436218 109.06982422 256.80810547 C107.77076141 256.81336243 106.47169861 256.81861938 105.13327026 256.82403564 C101.60214954 256.83759546 98.07129473 256.83245775 94.54016995 256.82289839 C90.82356184 256.81524081 87.10697472 256.82236432 83.3903656 256.82705688 C77.15082767 256.83249752 70.91139666 256.82536822 64.671875 256.81103516 C57.48669403 256.79471903 50.30176866 256.79999636 43.1165939 256.81651437 C36.91833694 256.83018633 30.72015634 256.83202096 24.52188915 256.82419837 C20.83279836 256.81955212 17.14382716 256.81881183 13.45474434 256.82880783 C9.3367037 256.83918888 5.21909436 256.82474754 1.10107422 256.80810547 C-0.10085068 256.81417816 -1.30277557 256.82025085 -2.54112244 256.82650757 C-13.22614073 256.74697495 -23.02985834 254.73580983 -32.54174805 249.79492188 C-33.21729736 249.44864746 -33.89284668 249.10237305 -34.58886719 248.74560547 C-52.4085724 239.2798797 -65.61366738 223.00375518 -71.82724571 203.86273193 C-75.06883835 192.25303945 -74.20517343 179.81694023 -74.15087557 167.86216736 C-74.13804297 164.14344558 -74.15000405 160.4247795 -74.1578064 156.70605469 C-74.16685327 150.46603144 -74.15504683 144.22630596 -74.13110352 137.98632812 C-74.10390154 130.81516779 -74.11271927 123.64471873 -74.14023554 116.47357559 C-74.16306857 110.27002079 -74.16605808 104.06667766 -74.1530422 97.86309433 C-74.14532487 94.17834604 -74.14398884 90.49392985 -74.16072464 86.8092041 C-74.26415264 60.40719384 -70.60807473 39.57422186 -51.47924805 20.25976562 C-37.28345329 6.5278563 -19.49482303 -0.04733293 0 0 Z " fill="#7311C8" transform="translate(73.479248046875,-0.419921875)"/>
<path d="M0 0 C2.64 0 5.28 0 8 0 C8.27972656 0.51457764 8.55945313 1.02915527 8.84765625 1.55932617 C17.15116306 16.82636471 25.53200027 32.05011249 33.93554688 47.26220703 C36.96054102 52.73845881 39.98218653 58.21655788 43.00402832 63.69454956 C44.66920967 66.71311169 46.33461644 69.73154944 48 72.75 C48.66666774 73.95833274 49.33333441 75.16666607 50 76.375 C50.33 76.973125 50.66 77.57125 51 78.1875 C52.5 80.90625 52.5 80.90625 54 83.625 C54.49491692 84.52203644 54.49491692 84.52203644 54.99983215 85.43719482 C55.66705938 86.64654482 56.33428554 87.8558954 57.00151062 89.06524658 C58.65959186 92.07052988 60.3176913 95.07580313 61.97583008 98.08105469 C65.07811562 103.70375886 68.18022008 109.32656271 71.28170776 114.94970703 C72.73420453 117.58312711 74.1868008 120.21649231 75.6394043 122.84985352 C76.32662831 124.09575719 77.01380447 125.34168725 77.70092773 126.58764648 C78.65856703 128.32412459 79.61639023 130.06050127 80.57421875 131.796875 C81.15864746 132.85841797 81.74307617 133.91996094 82.34521484 135.01367188 C83.40826379 136.93211607 84.48074038 138.84538308 85.56494141 140.75195312 C86.02433105 141.56083984 86.4837207 142.36972656 86.95703125 143.203125 C87.35510986 143.89567383 87.75318848 144.58822266 88.16333008 145.30175781 C89 147 89 147 89 149 C76.13 149 63.26 149 50 149 C43.39477489 137.3864174 36.83112292 125.76512708 30.5 114 C25.80162362 105.27313569 20.99098165 96.61959858 16.09033203 88.00488281 C13.02910624 82.61456296 9.99982954 77.20843732 7.01171875 71.77734375 C6.67159256 71.15930878 6.33146637 70.5412738 5.98103333 69.9045105 C4.26354144 66.78137904 2.55016679 63.65605023 0.84106445 60.52832031 C-2.18456462 55.00492242 -5.24834198 49.52122577 -8.53125 44.14453125 C-9.05831543 43.27473633 -9.58538086 42.40494141 -10.12841797 41.50878906 C-11.09389884 39.93062946 -12.0762032 38.36258184 -13.07861328 36.80761719 C-16.11864936 31.82834828 -16.11864936 31.82834828 -15.578125 28.0546875 C-13.49153724 24.01579733 -11.37430519 20.013539 -9.125 16.0625 C-8.69058594 15.28970703 -8.25617188 14.51691406 -7.80859375 13.72070312 C-5.22698523 9.13505315 -2.61480274 4.56678339 0 0 Z " fill="#FDFCFE" transform="translate(124,53)"/>
<path d="M0 0 C2.9842898 2.60720116 4.61259854 5.63773881 6.50390625 9.09375 C6.82785873 9.68168335 7.15181122 10.2696167 7.48558044 10.87536621 C8.5160871 12.74761974 9.53955852 14.62360416 10.5625 16.5 C11.59032539 18.37564296 12.61960201 20.25047509 13.65013123 22.12463379 C14.58397113 23.8244568 15.51388747 25.52643357 16.44360352 27.22851562 C18.00038048 30.08316621 18.00038048 30.08316621 20 33 C19.96181073 39.20575573 16.29908054 44.19405981 13.25 49.375 C12.06445142 51.42856019 10.88092159 53.48328691 9.69921875 55.5390625 C9.08868652 56.59899414 8.4781543 57.65892578 7.84912109 58.75097656 C4.8389471 64.04004384 1.94785165 69.39209276 -0.9375 74.75 C-1.71528809 76.19318604 -1.71528809 76.19318604 -2.50878906 77.66552734 C-3.45080622 79.41416562 -4.39197026 81.16326411 -5.33178711 82.91308594 C-7.87356661 87.61647537 -10.43993115 92.30654044 -13 97 C-26.2 97 -39.4 97 -53 97 C-51.53534677 93.33836692 -50.05405549 90.07954326 -48.19921875 86.6328125 C-47.64097412 85.59431152 -47.08272949 84.55581055 -46.50756836 83.48583984 C-45.9069458 82.3767627 -45.30632324 81.26768555 -44.6875 80.125 C-44.06302979 78.96822754 -43.43855957 77.81145508 -42.79516602 76.61962891 C-38.24274326 68.20673955 -33.56698107 59.8671703 -28.83129883 51.55615234 C-24.91692271 44.67079506 -21.12481528 37.72616791 -17.375 30.75 C-11.79519184 20.3727735 -5.97509766 10.15407378 0 0 Z " fill="#FCFAFD" transform="translate(95,106)"/>
</svg>
